<svg xmlns="http://www.w3.org/2000/svg" xml:space="preserve" id="svg2" x="0" y="0" style="enable-background:new 0 0 2500 2500" version="1.1" viewBox="0 0 2500 2500"><style>.st0{fill:#fff}</style><path d="M1430.7 1250c0 99.8-80.9 180.7-180.7 180.7s-180.7-80.9-180.7-180.7 80.9-180.7 180.7-180.7 180.7 80.9 180.7 180.7z" class="st0"/><path d="M1691.2 1031c-2.4-52.8-11.2-81.6-18.7-100.6-9.8-25.3-21.6-43.4-40.6-62.3-19-19-37-30.7-62.3-40.6-19.1-7.4-47.8-16.2-100.7-18.7-57.2-2.6-74.3-3.2-219-3.2s-161.9.5-219 3.2c-52.8 2.4-81.5 11.2-100.6 18.7C905 837.3 887 849 868 868s-30.7 37-40.5 62.3c-7.4 19.1-16.3 47.8-18.7 100.7-2.6 57.2-3.2 74.3-3.2 219s.5 161.9 3.2 219c2.4 52.8 11.2 81.6 18.7 100.6 9.8 25.3 21.6 43.4 40.5 62.3 19 19 37 30.7 62.3 40.5 19.1 7.4 47.8 16.3 100.6 18.7 57.2 2.6 74.3 3.2 219 3.2s161.9-.5 219-3.2c52.8-2.4 81.6-11.2 100.7-18.7 25.3-9.8 43.4-21.6 62.3-40.5 19-19 30.7-37 40.6-62.3 7.4-19.1 16.2-47.8 18.7-100.6 2.6-57.2 3.2-74.3 3.2-219s-.6-161.9-3.2-219zM1250 1528.3c-153.7 0-278.3-124.6-278.3-278.3s124.6-278.3 278.3-278.3 278.3 124.6 278.3 278.3-124.6 278.3-278.3 278.3zm289.3-502.6c-35.9 0-65-29.1-65-65s29.1-65 65-65 65 29.1 65 65c.1 35.9-29 65-65 65z" class="st0"/><path d="M1250 0C559.4 0 0 559.4 0 1250s559.4 1250 1250 1250 1250-559.4 1250-1250S1940.6 0 1250 0zm538.8 1473.5c-2.6 57.7-11.8 97.1-25.2 131.6-13.9 35.6-32.4 65.9-62.5 96-30.1 30.1-60.4 48.7-96 62.5-34.5 13.4-73.9 22.6-131.6 25.2-57.8 2.6-76.3 3.3-223.5 3.3s-165.7-.6-223.5-3.3c-57.7-2.6-97.1-11.8-131.6-25.2-35.6-13.8-65.9-32.4-96-62.5-30.1-30.1-48.7-60.4-62.5-96-13.4-34.5-22.6-73.9-25.2-131.6-2.6-57.8-3.3-76.3-3.3-223.5s.6-165.7 3.3-223.5c2.6-57.7 11.8-97.1 25.2-131.6 13.8-35.6 32.4-65.9 62.5-96 30.1-30.1 60.4-48.7 96-62.5 34.5-13.4 73.9-22.6 131.6-25.2 57.8-2.6 76.3-3.3 223.5-3.3s165.7.6 223.5 3.3c57.7 2.6 97.1 11.8 131.6 25.2 35.6 13.9 65.9 32.4 96 62.5 30.1 30.1 48.7 60.4 62.5 96 13.4 34.5 22.6 73.9 25.2 131.6 2.6 57.8 3.3 76.3 3.3 223.5s-.7 165.7-3.3 223.5z" class="st0"/></svg>