<svg xmlns="http://www.w3.org/2000/svg" xml:space="preserve" id="Layer_1" x="0" y="0" style="enable-background:new 0 0 285 85" version="1.1" viewBox="0 0 285 85"><style>.st0{fill:#fff}</style><path d="M139.3 78.2c0-3.4 2.6-6 6.1-6 3 0 5.3 2 5.8 4.9H148c-.4-1.2-1.4-1.9-2.6-1.9-1.6 0-2.8 1.3-2.8 3.1s1.2 3.1 2.8 3.1c1.3 0 2.3-.8 2.6-2.1h3.2c-.4 3-2.8 5.1-5.8 5.1-3.5-.2-6.1-2.8-6.1-6.2zM153.3 78.2c0-3.5 2.6-6 6.3-6 3.7 0 6.3 2.5 6.3 6s-2.6 6-6.3 6c-3.7 0-6.3-2.5-6.3-6zm9.3 0c0-1.8-1.3-3.1-3-3.1-1.8 0-3 1.3-3 3.1s1.3 3.1 3 3.1 3-1.3 3-3.1zM175.6 72.4h3.1v11.5H176l-4.6-6.2v6.2h-3.1V72.4h2.8l4.4 6v-6zM185.8 84.2c-2.8 0-4.6-1.5-4.6-4h3.3c0 .8.6 1.2 1.4 1.2.7 0 1.3-.4 1.3-1 0-.7-.9-.9-2-1.2-1.7-.4-3.8-.9-3.8-3.5 0-2.3 1.7-3.5 4.4-3.5s4.3 1.4 4.3 3.7h-3.2c0-.7-.5-1.1-1.2-1.1-.6 0-1.1.2-1.1.8 0 .6.9.9 1.9 1.1 1.7.4 3.9 1 3.9 3.6 0 2.7-2 3.9-4.6 3.9zM201.3 72.4v2.8h-3.1v8.6H195v-8.6h-3.1v-2.8h9.4zM209.8 83.9l-1.9-3.5h-1.1v3.5h-3.2V72.4h5c2.5 0 4.3 1.7 4.3 4.1 0 1.4-.7 2.6-1.8 3.2l2.3 4.2h-3.6zm-3-8.7v2.5h1.4c.9 0 1.4-.5 1.4-1.2s-.5-1.2-1.4-1.2h-1.4zM215.5 79.5v-7h3.2v7c0 1.1.7 1.8 1.8 1.8s1.8-.7 1.8-1.8v-7h3.2v7c0 2.8-2.1 4.7-5 4.7-3 0-5-1.9-5-4.7zM227.9 78.2c0-3.4 2.6-6 6.1-6 3 0 5.3 2 5.8 4.9h-3.2c-.4-1.2-1.4-1.9-2.6-1.9-1.6 0-2.8 1.3-2.8 3.1s1.2 3.1 2.8 3.1c1.3 0 2.3-.8 2.6-2.1h3.2c-.4 3-2.8 5.1-5.8 5.1-3.5-.2-6.1-2.8-6.1-6.2zM250.6 72.4v2.8h-3.1v8.6h-3.2v-8.6h-3.1v-2.8h9.4zM252.9 83.9V72.4h3.2v11.5h-3.2zM258.6 78.2c0-3.5 2.6-6 6.3-6 3.7 0 6.3 2.5 6.3 6s-2.6 6-6.3 6c-3.6 0-6.3-2.5-6.3-6zm9.4 0c0-1.8-1.3-3.1-3-3.1-1.8 0-3 1.3-3 3.1s1.3 3.1 3 3.1 3-1.3 3-3.1zM280.9 72.4h3.1v11.5h-2.6l-4.6-6.2v6.2h-3.1V72.4h2.8l4.4 6v-6zM12.1 0H0v64.4h12.1V0zM45.8 13.1c-15.3 0-27.2 10.9-27.2 26.2s11.9 26.2 27.2 26.2c11.8 0 21.9-6.3 25.7-16.6H57.3c-2.6 3.2-6.8 5.1-11.6 5.1-6.9 0-12.2-4-14-10h41.1c.1-1 .1-3.7.1-4.7 0-15.5-11.8-26.2-27.1-26.2zm0 11.4c7 0 12.2 3.9 14 10h-28c1.8-6 7.1-10 14-10zM106.1 13.1C90.8 13.1 79 23.9 79 39.2s11.9 26.2 27.2 26.2c15.3 0 27.2-11 27.2-26.2s-12-26.1-27.3-26.1zm0 40.8c-8.5 0-14.7-6.1-14.7-14.7s6.1-14.7 14.7-14.7 14.7 6.1 14.7 14.7-6.1 14.7-14.7 14.7zM130.3 72.4H82v11.5h48.3V72.4zM166.5 13.1c-15.3 0-27.2 10.9-27.2 26.2s12.4 26.2 26.7 26.2c5.7 0 10.9-1.6 15.2-4.5v3.5h12.1V39.2c-.1-15.1-11.5-26.1-26.8-26.1zm0 40.8c-8.6 0-14.7-6.1-14.7-14.7s6.1-14.7 14.7-14.7 14.7 6.1 14.7 14.7-6.2 14.7-14.7 14.7zM218.4 0h-12.1v14.1h-10.1v11.5h10.1v38.8h12.1V25.6h10.1V14.1h-10.1V0zM257.8 13.1c-15.3 0-27.2 10.9-27.2 26.2s11.9 26.2 27.2 26.2 27.2-11 27.2-26.2-11.9-26.2-27.2-26.2zm0 40.8c-8.6 0-14.7-6.1-14.7-14.7s6.1-14.7 14.7-14.7c8.5 0 14.7 6.1 14.7 14.7s-6.1 14.7-14.7 14.7z" class="st0"/></svg>