<svg xmlns="http://www.w3.org/2000/svg" xml:space="preserve" id="svg2" x="0" y="0" style="enable-background:new 0 0 2500 2500" version="1.1" viewBox="0 0 2500 2500"><style>.st0{fill:#fff}</style><path d="m1519.5 970.2-428.8 398.6a88.29 88.29 0 0 0-27.5 53.2l-14.6 108.2c-2 14.5-22.2 15.9-26.2 1.9l-56.2-197.4c-6.4-22.5 2.9-46.6 22.9-58.8l519.5-320c9.3-5.8 18.9 6.8 10.9 14.3z" class="st0"/><path d="M1250 0C559.4 0 0 559.4 0 1250s559.4 1250 1250 1250 1250-559.4 1250-1250S1940.6 0 1250 0zm519.5 785.5-195.8 941.7c-4.6 22.2-30.7 32.3-49.1 18.9l-267.2-194c-16.2-11.8-38.4-11.2-53.9 1.5l-148.2 120.8c-17.2 14.1-43.1 6.2-49.7-15l-102.9-330.9-265.8-99.2c-27-10.1-27.2-48.2-.3-58.6l1091-420.9c23.1-8.8 46.9 11.4 41.9 35.7z" class="st0"/></svg>