<svg xmlns="http://www.w3.org/2000/svg" xml:space="preserve" id="svg2" x="0" y="0" style="enable-background:new 0 0 2500 2500" version="1.1" viewBox="0 0 2500 2500"><style>.st1{fill:#0a0a08}.st2{fill-rule:evenodd;clip-rule:evenodd}</style><path d="M1250 0C559.4 0 0 559.4 0 1250s559.4 1250 1250 1250 1250-559.4 1250-1250S1940.6 0 1250 0zm371.4 1609.1c-43.9-136.6-153.1-242.3-297.7-256.7v256.7h-22.3c-393.3 0-617.6-269.6-627-718.3h197c6.5 329.3 151.7 468.8 266.7 497.5V890.9h185.5v284c113.6-12.2 232.9-141.6 273.2-284h185.5c-30.9 175.4-160.3 304.9-252.4 358.1 92 43.1 239.4 156 295.5 360.2h-204z" style="fill:#fff"/></svg>