<svg xmlns="http://www.w3.org/2000/svg" xml:space="preserve" id="svg2" x="0" y="0" style="enable-background:new 0 0 2500 2500" version="1.1" viewBox="0 0 2500 2500"><style>.st0{fill:#fff}</style><path d="M1121.5 1051.4c115.8 66.4 228.9 131.1 346.8 198.7-117.5 67.4-230.6 132.2-346.8 198.8v-397.5z" class="st0"/><path d="M1250 0C559.4 0 0 559.4 0 1250s559.4 1250 1250 1250 1250-559.4 1250-1250S1940.6 0 1250 0zm635.8 1545.3c-14.5 84.7-68 133.7-153.4 144.8-144.5 18.7-289.8 20.5-435.1 21.3-24 .1-48 0-71.9 0l-418.5-17.3c-22.4-1.2-45.1-3.9-67-9.1-65.4-15.7-108.5-56.4-124-122-24.2-102.2-26.7-206.7-26.8-311.2-.1-98.1 3.2-196.1 21.5-292.8 17.6-92.5 69.1-138 163.4-149 180.5-21.2 361.8-23.5 543.1-20.3 129.7 2.3 259.3 10 388.9 16.6 39.6 2 78.1 11 111.6 34.9 44.5 31.8 63.8 77.3 71.8 129.3 29.5 191.8 29.1 383.5-3.6 574.8z" class="st0"/></svg>